# xmcd
#
# Track frame offsets:
#       150
#       11380
#       26070
#       40110
#       52232
#       68000
#       80030
#       96627
#       114340
#       133025
#       149975
#
# Disc length: 2102 seconds
#
# Revision: 1
# Processed by: cddbd v1.5.2PL0 Copyright (c) Steve Scherf et al.
# Submitted via: FreeDbEdit v0.1
#
DISCID=a208340b
DTITLE=Various Artist - A Country Christmas, Volume 5
DYEAR=1900
DGENRE=
TTITLE0=Arron Tippin - Rudolph the Red-Nosed Reindeer
TTITLE1=John Anderson - The Christmas Song (Chestnuts Roasting on an Ope
TTITLE1=n Fire)
TTITLE2=Lorrie Morgan - Sleigh Ride
TTITLE3=Peter McCann - The Man Who Ran the Inn
TTITLE4=Lonestar - I'll Be Home for Christmas
TTITLE5=Clint Black - 'Til Santa's Gone (I Just Can't Wait)
TTITLE6=Lari White - White Christmas
TTITLE7=Ray Vega - Take a Walk Through Bethlehem
TTITLE8=Alabama - Angels Among Us
TTITLE9=Restless Heart - Little Drummer Boy
TTITLE10=Don Charles presents the Singing Dogs - Jingle Bells
EXTD=
EXTT0=Written by Johnny Marks
EXTT1=Written by Mel Torme - Robert Wells
EXTT2=Written by Mitchell Parish - LeRoy Anderson
EXTT3=Written by Peter McCann
EXTT4=Written by Kim Gannon - Walter Kent - Buck Ram
EXTT5=Written by Clint Black - Hayden Nicholas - Shake Russell
EXTT6=Written by Irving Berlin
EXTT7=Written by Wally Wilson - John Jarvis - Ashley Cleveland
EXTT8=Written by Becky Hobbs - Don Goodman
EXTT9=Written by Katherine Davis - Henry Onorati - Harry Simeone
EXTT10=Traditional (Public Domain)
PLAYORDER=
